<mxfile host="app.diagrams.net" modified="2023-09-19T12:59:44.493Z" agent="Mozilla/5.0 (Windows NT 10.0; Win64; x64; rv:109.0) Gecko/20100101 Firefox/117.0" version="21.7.2" etag="EgtNUg61C9qJXke4loR7" type="github">
  <diagram name="PÃ¡gina-1" id="LTTuIcAFy-MnYlZiaRR3">
    <mxGraphModel>
      <root>
        <mxCell id="0" />
        <mxCell id="1" parent="0" />
      </root>
    </mxGraphModel>
  </diagram>
</mxfile>
